<?xml version="1.0" standalone="no"?>
<!DOCTYPE svg PUBLIC "-//W3C//DTD SVG 1.1//EN" "http://www.w3.org/Graphics/SVG/1.1/DTD/svg11.dtd" >
<svg>
<metadata>
Created by FontForge 20090622 at Sun May 20 22:48:10 2018
 By deploy user
Copyright (c) 1989, 1995 Adobe Systems Incorporated.  All Rights Reserved.Folio is a registered trademark of Fundicion Tipografica Neufville S.A.
</metadata>
<defs>
<font id="Folio-BoldCondensed" horiz-adv-x="426" >
  <font-face 
    font-family="Folio"
    font-weight="400"
    font-stretch="condensed"
    units-per-em="1000"
    panose-1="2 0 5 6 4 0 0 2 0 4"
    ascent="800"
    descent="-200"
    x-height="516"
    cap-height="714"
    bbox="-167 -250 1000 906"
    underline-thickness="50"
    underline-position="-50"
    unicode-range="U+0020-U+FB02"
  />
<missing-glyph horiz-adv-x="213" 
 />
    <glyph glyph-name="fi" unicode="fi" horiz-adv-x="481" 
d="M197 400v-400h-142v400h-49v116h49v65q0 73 33.5 103t99.5 30h81v-116h-33q-20 0 -29.5 -8t-9.5 -30v-44h72v-116h-72zM308 578v136h130v-136h-130zM444 515v-515h-142v515h142z" />
    <glyph glyph-name="fl" unicode="fl" horiz-adv-x="481" 
d="M197 400v-400h-142v400h-49v116h49v65q0 73 33.5 103t99.5 30h81v-116h-30q-22 0 -32 -8t-10 -30v-44h72v-116h-72zM444 714v-714h-142v714h142z" />
    <glyph glyph-name=".notdef" horiz-adv-x="213" 
 />
    <glyph glyph-name=".null" horiz-adv-x="0" 
 />
    <glyph glyph-name="nonmarkingreturn" horiz-adv-x="213" 
 />
    <glyph glyph-name="space" unicode=" " horiz-adv-x="213" 
 />
    <glyph glyph-name="space" unicode="&#xa0;" horiz-adv-x="213" 
 />
    <glyph glyph-name="dollar" unicode="$" 
d="M244 -82h-62v68q-37 0 -68 8.5t-53.5 26.5t-35.5 45t-13 64v83h134v-41q0 -33 15 -51.5t50 -18.5q34 0 51.5 21.5t17.5 59.5q0 32 -20 54.5t-49.5 42.5t-64.5 40.5t-64.5 47.5t-49.5 64t-20 90t10.5 90t32 59.5t53.5 32.5t74 10v68h62v-68q47 0 78 -12t50 -32t26.5 -47
t7.5 -57v-70h-130v48q0 33 -19.5 45.5t-47.5 12.5q-29 0 -46 -16t-17 -46q0 -32 20 -56t49.5 -47t64.5 -46.5t64.5 -53t49.5 -67.5t20 -90q0 -59 -11 -97t-32.5 -59.5t-53 -29.5t-73.5 -8v-68z" />
    <glyph glyph-name="percent" unicode="%" horiz-adv-x="611" 
d="M576 706l-468 -716h-68l468 716h68zM444 92q0 -10 8 -18.5t22 -8.5q15 0 22.5 8.5t7.5 18.5v129q0 9 -7.5 17.5t-22.5 8.5q-14 0 -22 -8.5t-8 -17.5v-129zM590 84q0 -45 -25.5 -69.5t-60.5 -24.5h-60q-35 0 -60.5 24.5t-25.5 69.5v144q0 46 25.5 70t60.5 24h60
q35 0 60.5 -24t25.5 -70v-144zM264 468q0 -46 -25.5 -70t-60.5 -24h-60q-35 0 -60.5 24t-25.5 70v144q0 46 25.5 70t60.5 24h60q35 0 60.5 -24t25.5 -70v-144zM118 476q0 -10 8 -18.5t22 -8.5q15 0 22.5 8.5t7.5 18.5v128q0 10 -7.5 18.5t-22.5 8.5q-14 0 -22 -8.5t-8 -18.5
v-128z" />
    <glyph glyph-name="ampersand" unicode="&#x26;" horiz-adv-x="537" 
d="M344 279l41 66h147l-104 -167q11 -10 18 -19t13 -16t12.5 -11.5t15.5 -5.5h34v-126h-50q-27 0 -44 5t-29.5 14t-23 22.5l-23.5 30.5q-31 -44 -66 -65t-91 -21q-93 0 -137.5 51.5t-44.5 136.5q0 55 28.5 102t74.5 76q-26 27 -40.5 70t-14.5 82q0 96 42 139t122 43
q81 0 119.5 -39.5t38.5 -127.5q0 -38 -6.5 -64t-18.5 -45.5t-29.5 -35.5t-38.5 -33zM215 428q15 12 25 22t15.5 20t8 22t2.5 27q0 29 -12 42t-30 13t-30 -14.5t-12 -44.5q0 -25 9.5 -47.5t23.5 -39.5zM190 258q-22 -16 -35 -37.5t-13 -48.5q0 -26 14.5 -43t42.5 -17
q35 0 71 53z" />
    <glyph glyph-name="quoteright" unicode="&#x2019;" horiz-adv-x="213" 
d="M171 714v-130l-67 -130h-73l60 130h-50v130h130z" />
    <glyph glyph-name="parenleft" unicode="(" horiz-adv-x="296" 
d="M258 0h-89q-51 0 -82 27.5t-31 87.5v484q0 60 31 87.5t82 27.5h89v-100h-34q-29 0 -42.5 -7.5t-13.5 -29.5v-440q0 -22 13.5 -29.5t42.5 -7.5h34v-100z" />
    <glyph glyph-name="parenright" unicode=")" horiz-adv-x="296" 
d="M38 100h34q29 0 42.5 7.5t13.5 29.5v440q0 22 -13.5 29.5t-42.5 7.5h-34v100h89q51 0 82 -27.5t31 -87.5v-484q0 -60 -31 -87.5t-82 -27.5h-89v100z" />
    <glyph glyph-name="asterisk" unicode="*" horiz-adv-x="407" 
d="M355 537h-126v-2l100 -69l-16 -64h-70l-38 128h-2l-38 -128h-70l-16 64l100 69v2h-126l-18 62l50 41l106 -81l2 2l-42 127l53 40l53 -40l-42 -127l2 -2l106 81l50 -41z" />
    <glyph glyph-name="plus" unicode="+" horiz-adv-x="600" 
d="M244 516h112v-202h202v-112h-202v-202h-112v202h-202v112h202v202z" />
    <glyph glyph-name="comma" unicode="," horiz-adv-x="213" 
d="M172 130v-130l-67 -130h-73l60 130h-50v130h130z" />
    <glyph glyph-name="hyphen" unicode="-" horiz-adv-x="315" 
d="M42 198v120h231v-120h-231z" />
    <glyph glyph-name="hyphen" unicode="&#xad;" horiz-adv-x="315" 
d="M42 198v120h231v-120h-231z" />
    <glyph glyph-name="period" unicode="." horiz-adv-x="213" 
d="M172 130v-130h-130v130h130z" />
    <glyph glyph-name="slash" unicode="/" horiz-adv-x="296" 
d="M302 728l-196 -742h-112l196 742h112z" />
    <glyph glyph-name="zero" unicode="0" 
d="M250 530q0 28 -10 40t-27 12t-27 -12t-10 -40v-364q0 -27 10 -39t27 -12t27 12t10 39v364zM34 554q0 82 45 117t134 35t134 -35t45 -117v-412q0 -81 -45 -116.5t-134 -35.5t-134 35.5t-45 116.5v412z" />
    <glyph glyph-name="one" unicode="1" 
d="M160 566h-100v87l100 43h142v-696h-142v566z" />
    <glyph glyph-name="two" unicode="2" 
d="M32 0v117q0 28 16 63t40 72t52.5 75t52.5 73.5t40 66.5t16 54q0 36 -8.5 48t-29.5 12q-20 0 -29 -10.5t-9 -39.5v-44h-141v52q0 41 8.5 72t29 52t55 32t86.5 11q51 0 85.5 -9t55.5 -30t29.5 -55t8.5 -83q0 -62 -19.5 -107.5t-49.5 -88.5l-66 -90.5t-69 -113.5h207v-129
h-361z" />
    <glyph glyph-name="three" unicode="3" 
d="M171 210v-32q0 -38 9 -50.5t30 -12.5t30 12.5t9 50.5v61q0 38 -9 51t-30 13h-67v128h67q19 0 29 9.5t10 34.5v63q0 25 -10 34.5t-29 9.5t-29 -9.5t-10 -34.5v-51h-136v67q0 82 44.5 117t133.5 35t133.5 -35t44.5 -117v-60q0 -26 -4.5 -48t-16 -38t-30.5 -25.5t-48 -10.5
v-3q29 -1 48 -10.5t30.5 -25.5t16 -38t4.5 -48v-105q0 -81 -44.5 -116.5t-133.5 -35.5t-133.5 35.5t-44.5 116.5v68h136z" />
    <glyph glyph-name="four" unicode="4" 
d="M12 292l157 404h194v-404h51v-126h-51v-166h-136v166h-215v126zM227 292v258h-2l-97 -258h99z" />
    <glyph glyph-name="five" unicode="5" 
d="M171 208v-28q0 -41 9.5 -54.5t29.5 -13.5t29.5 13.5t9.5 54.5v125q0 40 -9.5 54t-29.5 14q-39 0 -39 -49v-8h-120v380h315v-130h-185v-117h2q4 12 14.5 20t24 12.5t27.5 6.5t26 2q23 0 44 -8.5t37 -25t25.5 -40t9.5 -53.5v-223q0 -83 -44.5 -118.5t-133.5 -35.5
t-133.5 35.5t-44.5 118.5v68h136z" />
    <glyph glyph-name="six" unicode="6" 
d="M250 279q0 21 -11.5 29t-27.5 8t-25.5 -8t-9.5 -29v-128q0 -20 9.5 -28t25.5 -8t27.5 8t11.5 28v128zM250 489v46q0 47 -37 47t-37 -47v-138h2q7 12 18 19t22.5 11t22 5.5t18.5 1.5q66 0 99.5 -37.5t33.5 -98.5v-160q0 -77 -44 -112.5t-135 -35.5t-135 35.5t-44 112.5
v398q0 44 9.5 76t30.5 53t55 31t84 10t84 -10t55 -29.5t30.5 -48t9.5 -66.5v-63h-142z" />
    <glyph glyph-name="seven" unicode="7" 
d="M221 566h-168v130h320v-116l-157 -580h-150z" />
    <glyph glyph-name="eight" unicode="8" 
d="M30 240q0 68 23.5 98.5t76.5 32.5v2q-30 4 -48.5 15.5t-28.5 29t-13.5 40.5t-3.5 49v62q0 64 45 100.5t132 36.5t132 -36.5t45 -100.5v-62q0 -26 -3.5 -49t-13.5 -40.5t-28.5 -29t-48.5 -15.5v-2q53 -4 76.5 -34.5t23.5 -98.5v-100q0 -41 -11.5 -69.5t-34 -46t-57 -25
t-80.5 -7.5t-80.5 7.5t-57 25t-34 46t-11.5 69.5v102zM172 490q0 -34 10.5 -47t30.5 -13t30.5 13t10.5 47v32q0 33 -10.5 46.5t-30.5 13.5t-30.5 -13.5t-10.5 -46.5v-32zM172 151q0 -36 41 -36t41 36v128q0 37 -41 37t-41 -37v-128z" />
    <glyph glyph-name="nine" unicode="9" 
d="M176 417q0 -20 9 -28t28 -8t28 8t9 28v128q0 37 -37 37t-37 -37v-128zM176 208v-47q0 -46 37 -46t37 46v139h-2q-7 -12 -18 -19.5t-22.5 -11.5t-22.5 -5.5t-18 -1.5q-66 0 -99.5 37.5t-33.5 99.5v159q0 78 44 113t135 35t135 -35t44 -113v-398q0 -44 -9.5 -76t-30.5 -53
t-55 -31t-84 -10t-84 10t-55 29.5t-30.5 48t-9.5 66.5v64h142z" />
    <glyph glyph-name="colon" unicode=":" horiz-adv-x="213" 
d="M172 489v-130h-130v130h130zM172 130v-130h-130v130h130z" />
    <glyph glyph-name="semicolon" unicode=";" horiz-adv-x="213" 
d="M172 490v-130h-130v130h130zM172 130v-130l-67 -130h-73l60 130h-50v130h130z" />
    <glyph glyph-name="semicolon" unicode="&#x37e;" horiz-adv-x="213" 
d="M172 490v-130h-130v130h130zM172 130v-130l-67 -130h-73l60 130h-50v130h130z" />
    <glyph glyph-name="less" unicode="&#x3c;" horiz-adv-x="600" 
d="M189 258l369 -153v-108l-516 216v90l516 216v-108z" />
    <glyph glyph-name="equal" unicode="=" horiz-adv-x="600" 
d="M558 92h-516v112h516v-112zM558 312h-516v112h516v-112z" />
    <glyph glyph-name="greater" unicode="&#x3e;" horiz-adv-x="600" 
d="M410 258l-368 153v108l516 -216v-90l-516 -216v108z" />
    <glyph glyph-name="question" unicode="?" horiz-adv-x="407" 
d="M255 130v-130h-130v130h130zM125 216v100q0 38 17 63.5t38 49.5t37.5 50.5t16.5 64.5q0 41 -10 56.5t-26 15.5t-26 -15.5t-10 -56.5v-45h-130v60q0 94 43 131.5t129 37.5q85 0 128.5 -43t43.5 -131q0 -35 -5 -61t-13.5 -45.5t-19.5 -33.5t-22 -26l-22 -23t-19.5 -24.5
t-14 -30t-5.5 -38.5v-56h-130z" />
    <glyph glyph-name="at" unicode="@" horiz-adv-x="800" 
d="M531 538h90l-50 -244q-2 -8 -4 -18t-2 -19q0 -12 3.5 -16.5t10.5 -4.5q17 0 35 10.5t32.5 30.5t23.5 50.5t9 70.5q0 60 -20 106t-55 77t-83.5 47t-105.5 16q-63 0 -113.5 -22t-86.5 -60.5t-55.5 -91t-19.5 -114.5q0 -66 21.5 -119t60 -90.5t92 -58t117.5 -20.5
q58 0 108.5 20t88.5 52h92q-52 -75 -128 -114.5t-169 -39.5q-79 0 -149 27.5t-122.5 77t-83 117.5t-30.5 148q0 79 30 147t81.5 118t121 78.5t147.5 28.5q66 0 128 -21.5t110.5 -60.5t77.5 -95t29 -125q0 -55 -14.5 -97.5t-37 -74.5t-51 -54t-56.5 -35.5t-53 -19.5t-40 -6
q-21 0 -37 12.5t-17 38.5l-2 1q-19 -21 -46 -36.5t-54 -15.5q-32 0 -61.5 14t-52 38t-35.5 56t-13 67q0 45 15 87.5t42 75.5t65 53t85 20q37 0 67.5 -15t51.5 -47zM382 245q24 0 44.5 10.5t34.5 27t22 38t8 44.5q0 36 -22 58.5t-57 22.5q-23 0 -43 -10.5t-34 -27t-22 -37.5
t-8 -42q0 -36 20.5 -60t56.5 -24z" />
    <glyph glyph-name="A" unicode="A" horiz-adv-x="444" 
d="M186 256h70l-31 338h-2zM4 0l121 714h194l121 -714h-151l-17 126h-101l-15 -126h-152z" />
    <glyph glyph-name="B" unicode="B" horiz-adv-x="444" 
d="M190 130h34q16 0 25.5 3t14.5 12t7 26.5t3 47.5q0 30 -2 48t-7.5 27t-15 11.5t-25.5 2.5h-34v-178zM44 714h213q85 0 122 -37t37 -109v-62q0 -20 -4 -40t-14 -37t-27 -31t-43 -22v-2q48 -8 70 -37.5t22 -83.5v-107q0 -72 -37 -109t-122 -37h-217v714zM190 438h37
q12 0 20.5 2.5t13.5 10.5t7 22t2 38q0 46 -9 59.5t-34 13.5h-37v-146z" />
    <glyph glyph-name="C" unicode="C" 
d="M34 560q0 89 42 128.5t142 39.5t142 -39.5t42 -128.5v-101h-146v107q0 16 -11.5 24t-26.5 8q-20 0 -29 -10.5t-9 -39.5v-382q0 -29 9 -39.5t29 -10.5q15 0 26.5 8t11.5 24v132h146v-126q0 -89 -42 -128.5t-142 -39.5t-142 39.5t-42 128.5v406z" />
    <glyph glyph-name="D" unicode="D" horiz-adv-x="444" 
d="M190 130h34q23 0 32.5 13t9.5 49v330q0 36 -9.5 49t-32.5 13h-34v-454zM44 714h180q48 0 83.5 -7.5t58.5 -26.5t34.5 -51.5t11.5 -82.5v-378q0 -50 -11.5 -82.5t-34.5 -51.5t-58.5 -26.5t-83.5 -7.5h-180v714z" />
    <glyph glyph-name="E" unicode="E" horiz-adv-x="370" 
d="M44 714h300v-130h-154v-146h147v-130h-147v-178h154v-130h-300v714z" />
    <glyph glyph-name="F" unicode="F" horiz-adv-x="370" 
d="M44 714h300v-130h-154v-146h147v-130h-147v-308h-146v714z" />
    <glyph glyph-name="G" unicode="G" horiz-adv-x="444" 
d="M410 0h-95l-21 52q-11 -17 -22 -29t-24.5 -20.5t-30.5 -12.5t-41 -4q-64 0 -103 36t-39 105v433q0 89 42 128.5t142 39.5q53 0 89.5 -9.5t59.5 -30t33 -52.5t10 -76v-44h-146v43q0 21 -9.5 30t-32.5 9t-32.5 -9t-9.5 -30v-404q0 -21 9.5 -30t32.5 -9t32.5 9t9.5 30v153
h-43v130h189v-438z" />
    <glyph glyph-name="H" unicode="H" horiz-adv-x="463" 
d="M44 714h146v-276h84v276h146v-714h-146v308h-84v-308h-146v714z" />
    <glyph glyph-name="I" unicode="I" horiz-adv-x="241" 
d="M48 0v714h146v-714h-146z" />
    <glyph glyph-name="J" unicode="J" horiz-adv-x="407" 
d="M147 225v-65q0 -24 8.5 -34t29.5 -10t29.5 10t8.5 34v554h146v-560q0 -49 -10 -81.5t-32 -51.5t-56 -27t-82 -8t-83 8t-57.5 27t-33 51.5t-10.5 81.5v71h142z" />
    <glyph glyph-name="K" unicode="K" horiz-adv-x="463" 
d="M190 376h2l112 338h154l-124 -350l127 -364h-154l-115 352h-2v-352h-146v714h146v-338z" />
    <glyph glyph-name="L" unicode="L" horiz-adv-x="352" 
d="M44 0v714h146v-584h154v-130h-300z" />
    <glyph glyph-name="M" unicode="M" horiz-adv-x="685" 
d="M343 148h2l68 566h232v-714h-138v610h-2l-90 -610h-145l-90 610h-2v-610h-138v714h232z" />
    <glyph glyph-name="N" unicode="N" horiz-adv-x="537" 
d="M355 714h138v-714h-183l-126 499h-2v-499h-138v714h185l124 -503h2v503z" />
    <glyph glyph-name="O" unicode="O" horiz-adv-x="444" 
d="M34 560q0 50 11.5 82.5t34.5 51.5t58.5 26.5t83.5 7.5t83.5 -7.5t58.5 -26.5t34.5 -51.5t11.5 -82.5v-406q0 -50 -11.5 -82.5t-34.5 -51.5t-58.5 -26.5t-83.5 -7.5t-83.5 7.5t-58.5 26.5t-34.5 51.5t-11.5 82.5v406zM180 155q0 -21 9.5 -30t32.5 -9t32.5 9t9.5 30v404
q0 21 -9.5 30t-32.5 9t-32.5 -9t-9.5 -30v-404z" />
    <glyph glyph-name="P" unicode="P" 
d="M190 382h37q12 0 20.5 3.5t13.5 14t7 29t2 47.5q0 38 -2 60t-6.5 32.5t-13 13t-21.5 2.5h-37v-202zM190 0h-146v714h180q54 0 90 -7.5t57.5 -26.5t31 -50t9.5 -79v-136q0 -48 -9.5 -79t-31 -50t-57.5 -26.5t-90 -7.5h-34v-252z" />
    <glyph glyph-name="Q" unicode="Q" horiz-adv-x="444" 
d="M370 -180h-99q-27 0 -47 4.5t-33 16.5t-19 33.5t-6 55.5v61q-68 7 -100 43.5t-32 119.5v406q0 50 11.5 82.5t34.5 51.5t58.5 26.5t83.5 7.5t83.5 -7.5t58.5 -26.5t34.5 -51.5t11.5 -82.5v-406q0 -85 -32.5 -121t-99.5 -43v-21q0 -17 9.5 -27t26.5 -10h56v-112zM180 155
q0 -21 9.5 -30t32.5 -9t32.5 9t9.5 30v404q0 21 -9.5 30t-32.5 9t-32.5 -9t-9.5 -30v-404z" />
    <glyph glyph-name="R" unicode="R" horiz-adv-x="444" 
d="M190 438h37q23 0 33 13t10 60q0 44 -8.5 58.5t-34.5 14.5h-37v-146zM44 0v714h187q48 0 83 -7t57.5 -23.5t33.5 -44.5t11 -71v-85q0 -16 -4 -33.5t-13.5 -32.5t-25.5 -26t-41 -15v-2q45 -8 66.5 -40t21.5 -101v-155q0 -41 1 -55.5t9 -22.5h-147q-9 16 -9 29v243
q0 36 -47 36h-37v-308h-146z" />
    <glyph glyph-name="S" unicode="S" horiz-adv-x="407" 
d="M246 499v40q0 59 -42 59q-23 0 -32.5 -13.5t-9.5 -45.5q0 -31 17 -53.5t42.5 -43t55.5 -42t55.5 -51t42.5 -70t17 -98.5q0 -56 -9.5 -93.5t-31.5 -60t-58 -32t-90 -9.5q-50 0 -85.5 8.5t-58 28t-33 52.5t-10.5 83v67h146v-50q0 -59 42 -59q23 0 32.5 13.5t9.5 45.5
q0 37 -17.5 62.5t-43 46.5t-55 42.5t-55 50.5t-42.5 69t-17 100q0 48 9.5 82.5t32 56.5t58 32.5t88.5 10.5q93 0 138.5 -39t45.5 -134v-56h-142z" />
    <glyph glyph-name="T" unicode="T" horiz-adv-x="370" 
d="M112 584h-108v130h362v-130h-108v-584h-146v584z" />
    <glyph glyph-name="U" unicode="U" horiz-adv-x="444" 
d="M410 154q0 -50 -11.5 -82.5t-34.5 -51.5t-58.5 -26.5t-83.5 -7.5t-83.5 7.5t-58.5 26.5t-34.5 51.5t-11.5 82.5v560h146v-538q0 -38 9.5 -49t32.5 -11t32.5 11t9.5 49v538h146v-560z" />
    <glyph glyph-name="V" unicode="V" horiz-adv-x="444" 
d="M440 714l-121 -714h-194l-121 714h151l66 -553h2l68 553h149z" />
    <glyph glyph-name="W" unicode="W" horiz-adv-x="722" 
d="M4 714h151l59 -558h2l63 558h164l65 -559h2l57 559h151l-110 -714h-184l-62 546h-2l-62 -546h-184z" />
    <glyph glyph-name="X" unicode="X" horiz-adv-x="481" 
d="M160 372l-143 342h153l71 -194l-2 2v-2h2l68 194h153l-143 -342l158 -372h-155l-82 219l-81 -219h-155z" />
    <glyph glyph-name="Y" unicode="Y" horiz-adv-x="463" 
d="M231 457h2l73 257h153l-155 -442v-272h-146v272l-154 442h153z" />
    <glyph glyph-name="Z" unicode="Z" horiz-adv-x="389" 
d="M22 0v130l175 454h-170v130h335v-130l-182 -454h199v-130h-357z" />
    <glyph glyph-name="bracketleft" unicode="[" horiz-adv-x="296" 
d="M56 0v714h202v-100h-90v-514h90v-100h-202z" />
    <glyph glyph-name="backslash" unicode="\" horiz-adv-x="278" 
d="M97 728l196 -742h-112l-196 742h112z" />
    <glyph glyph-name="bracketright" unicode="]" horiz-adv-x="296" 
d="M38 0v100h90v514h-90v100h202v-714h-202z" />
    <glyph glyph-name="asciicircum" unicode="^" horiz-adv-x="600" 
d="M70 321l180 375h100l180 -375h-110l-120 264l-120 -264h-110z" />
    <glyph glyph-name="underscore" unicode="_" horiz-adv-x="500" 
d="M0 -125v50h500v-50h-500z" />
    <glyph glyph-name="quoteleft" unicode="&#x2018;" horiz-adv-x="213" 
d="M42 454v130l67 130h73l-60 -130h50v-130h-130z" />
    <glyph glyph-name="a" unicode="a" horiz-adv-x="407" 
d="M230 247l-28.5 -19t-21.5 -17t-13.5 -22t-4.5 -35v-13q0 -23 10.5 -33t30.5 -10q8 0 17.5 8t9.5 25v116zM38 351v49q0 62 43 96t124 34t124 -34t43 -96v-302q0 -35 5.5 -57l10.5 -41h-137q-5 13 -7 27.5t-2 28.5h-2q-15 -38 -41.5 -54t-60.5 -16q-60 0 -89 33.5
t-29 114.5v30q0 53 16 82.5t40 45.5t52 23t52 14.5t40 19.5t16 39q0 14 -7.5 27t-24.5 13q-27 0 -34.5 -17.5t-7.5 -59.5h-124z" />
    <glyph glyph-name="b" unicode="b" 
d="M247 374q0 44 -30 44q-14 0 -26 -10.5t-12 -33.5v-232q0 -23 12 -33.5t26 -10.5q30 0 30 44v232zM179 714v-252h2q8 27 34 47.5t71 20.5t74 -30t29 -83v-318q0 -53 -29 -83t-74 -30q-42 0 -71.5 23.5t-39.5 58.5h-2v-68h-136v714h142z" />
    <glyph glyph-name="c" unicode="c" horiz-adv-x="389" 
d="M365 206v-77q0 -76 -45 -109.5t-126 -33.5q-84 0 -126.5 37t-42.5 106v258q0 69 42.5 106t126.5 37q81 0 126 -34t45 -109v-67h-130v58q0 40 -34 40t-34 -40v-240q0 -40 34 -40t34 40v68h130z" />
    <glyph glyph-name="d" unicode="d" 
d="M179 142q0 -44 30 -44q14 0 26 10.5t12 33.5v232q0 23 -12 33.5t-26 10.5q-30 0 -30 -44v-232zM253 71q-11 -38 -41 -61.5t-72 -23.5q-45 0 -74 30t-29 83v318q0 53 29 83t74 30t71 -20.5t34 -47.5h2v252h142v-714h-136v71z" />
    <glyph glyph-name="e" unicode="e" horiz-adv-x="407" 
d="M248 322v47q0 25 -10.5 37t-27.5 12t-27.5 -12t-10.5 -37v-47h76zM172 224v-80q0 -26 10.5 -36t27.5 -10t27.5 10t10.5 36v28h130v-46q0 -69 -41.5 -104.5t-132.5 -35.5t-132.5 35.5t-41.5 104.5v231q0 44 9 76.5t29.5 54t53.5 32t82 10.5t82 -10.5t53.5 -32t29.5 -54
t9 -76.5v-133h-206z" />
    <glyph glyph-name="f" unicode="f" horiz-adv-x="278" 
d="M197 400v-400h-142v400h-49v116h49v65q0 73 33.5 103t99.5 30h84v-116h-33q-22 0 -32 -8t-10 -30v-44h75v-116h-75z" />
    <glyph glyph-name="g" unicode="g" 
d="M179 156q0 -44 30 -44q14 0 26 10.5t12 33.5v218q0 23 -12 33.5t-26 10.5q-30 0 -30 -44v-218zM179 -34q0 -23 10 -32.5t24 -9.5q34 0 34 43v91h-2q-11 -18 -36 -38t-68 -20q-20 0 -39 7t-33.5 21t-23 35.5t-8.5 50.5v302q0 29 8.5 50.5t23 35.5t33.5 21t39 7
q25 0 44.5 -8t33.5 -19t22 -24t10 -23h2v60h136v-532q0 -47 -10.5 -78t-31.5 -50.5t-54 -27.5t-78 -8q-49 0 -82 7t-53 23.5t-28.5 44.5t-8.5 71h136z" />
    <glyph glyph-name="h" unicode="h" 
d="M37 714h136v-258h2q12 29 40.5 51.5t66.5 22.5q47 0 77 -29t30 -95v-406h-142v368q0 27 -8 38.5t-24 11.5q-19 0 -27.5 -12.5t-8.5 -47.5v-358h-142v714z" />
    <glyph glyph-name="i" unicode="i" horiz-adv-x="222" 
d="M46 578v136h130v-136h-130zM182 516v-516h-142v516h142z" />
    <glyph glyph-name="j" unicode="j" horiz-adv-x="222" 
d="M176 578h-130v136h130v-136zM182 516v-588q0 -27 -11 -47.5t-28.5 -34t-39 -20t-43.5 -6.5h-79v126h35q12 0 18 11t6 43v516h142z" />
    <glyph glyph-name="k" unicode="k" horiz-adv-x="407" 
d="M37 714h142v-444l2 -1l74 247h141l-80 -245l84 -271h-141l-78 262h-2v-262h-142v714z" />
    <glyph glyph-name="l" unicode="l" horiz-adv-x="222" 
d="M182 714v-714h-142v714h142z" />
    <glyph glyph-name="m" unicode="m" horiz-adv-x="630" 
d="M450 0v368q0 29 -6.5 39.5t-21.5 10.5q-20 0 -28 -14t-8 -46v-358h-142v368q0 29 -6.5 39.5t-21.5 10.5q-20 0 -28 -14t-8 -46v-358h-142v516h136v-58h2q3 10 11 22.5t21.5 23.5t32.5 18.5t42 7.5q36 0 61.5 -19t34.5 -55h2q11 29 39.5 51.5t66.5 22.5q47 0 76 -29
t29 -95v-406h-142z" />
    <glyph glyph-name="n" unicode="n" 
d="M37 516h136v-60h2q12 29 40.5 51.5t66.5 22.5q47 0 77 -29t30 -95v-406h-142v368q0 27 -8 38.5t-24 11.5q-19 0 -27.5 -12.5t-8.5 -47.5v-358h-142v516z" />
    <glyph glyph-name="o" unicode="o" horiz-adv-x="407" 
d="M29 375q0 42 13 71t36.5 48t55.5 27.5t70 8.5t70 -8.5t55.5 -27.5t36.5 -48t13 -71v-234q0 -42 -13 -71t-36.5 -48t-55.5 -27.5t-70 -8.5t-70 8.5t-55.5 27.5t-36.5 48t-13 71v234zM171 142q0 -23 7 -33.5t26 -10.5t26 10.5t7 33.5v232q0 23 -7 33.5t-26 10.5t-26 -10.5
t-7 -33.5v-232z" />
    <glyph glyph-name="p" unicode="p" 
d="M247 374q0 44 -30 44q-14 0 -26 -10.5t-12 -33.5v-232q0 -23 12 -33.5t26 -10.5q30 0 30 44v232zM173 448h2q10 35 39.5 58.5t71.5 23.5q45 0 74 -30t29 -83v-318q0 -53 -29 -83t-74 -30t-71 20.5t-34 47.5h-2v-234h-142v696h136v-68z" />
    <glyph glyph-name="q" unicode="q" 
d="M179 142q0 -44 30 -44q14 0 26 10.5t12 33.5v232q0 23 -12 33.5t-26 10.5q-30 0 -30 -44v-232zM247 -180v234h-2q-8 -27 -34 -47.5t-71 -20.5t-74 30t-29 83v318q0 53 29 83t74 30q42 0 71.5 -23.5t39.5 -58.5h2v68h136v-696h-142z" />
    <glyph glyph-name="r" unicode="r" horiz-adv-x="296" 
d="M37 516h137v-102h2q15 32 27.5 52t25.5 32t28.5 17.5t36.5 8.5v-173h-2q-14 3 -27 3q-36 0 -61 -24t-25 -71v-259h-142v516z" />
    <glyph glyph-name="s" unicode="s" horiz-adv-x="389" 
d="M226 352v32q0 16 -10.5 25t-24.5 9q-33 0 -33 -31q0 -21 15.5 -35t39 -26l50.5 -25t50.5 -31t39 -45t15.5 -67q4 -86 -37.5 -129t-135.5 -43q-91 0 -132 40.5t-41 111.5v40h136v-22q0 -34 10 -46t27 -12q31 0 31 41q0 26 -15 41t-38 26.5l-49 23.5t-49 31t-38 49.5
t-15 79.5q0 63 42 101.5t131 38.5q79 0 120 -32t41 -98v-48h-130z" />
    <glyph glyph-name="t" unicode="t" horiz-adv-x="278" 
d="M52 653h142v-137h77v-116h-77v-210q0 -42 7 -53t31 -11h39v-126h-140q-40 0 -59.5 23.5t-19.5 64.5v312h-45v116h45v137z" />
    <glyph glyph-name="u" unicode="u" 
d="M389 0h-136v60h-2q-12 -29 -40.5 -51.5t-66.5 -22.5q-47 0 -77 29t-30 95v406h142v-368q0 -27 8 -38.5t24 -11.5q19 0 27.5 12.5t8.5 47.5v358h142v-516z" />
    <glyph glyph-name="v" unicode="v" horiz-adv-x="407" 
d="M150 516l53 -390h2l52 390h146l-118 -516h-163l-118 516h146z" />
    <glyph glyph-name="w" unicode="w" horiz-adv-x="630" 
d="M7 516h145l39 -386h2l45 386h157l44 -386h2l40 386h142l-97 -516h-170l-39 386h-2l-41 -386h-170z" />
    <glyph glyph-name="x" unicode="x" horiz-adv-x="389" 
d="M229 516h145l-89 -241l97 -275h-146l-41 190h-2l-40 -190h-146l97 275l-85 241h145l30 -182h2z" />
    <glyph glyph-name="y" unicode="y" horiz-adv-x="407" 
d="M63 -54h53q16 0 23.5 6.5t7.5 15.5q0 5 -2 11t-4 13l-139 524h149l61 -377h2l41 377h150l-134 -593q-12 -53 -37.5 -78t-79.5 -25h-91v126z" />
    <glyph glyph-name="z" unicode="z" horiz-adv-x="333" 
d="M12 516h306v-116l-144 -284h148v-116h-310v116l144 284h-144v116z" />
    <glyph glyph-name="braceleft" unicode="{" horiz-adv-x="296" 
d="M36 408q7 0 15.5 2t16 8t13 16t5.5 27v149q0 48 23 76t75 28h74v-100h-18q-23 0 -32.5 -8.5t-9.5 -35.5v-130q0 -23 -9 -38t-22 -24t-26.5 -13t-22.5 -6v-2q9 0 22.5 -3.5t26.5 -12.5t22 -23.5t9 -37.5v-136q0 -27 9.5 -35.5t32.5 -8.5h18v-100h-74q-52 0 -75 28t-23 76
v149q0 16 -5.5 27t-13 17t-16 8.5t-15.5 2.5v100z" />
    <glyph glyph-name="bar" unicode="|" horiz-adv-x="222" 
d="M167 750v-1000h-112v1000h112z" />
    <glyph glyph-name="braceright" unicode="}" horiz-adv-x="296" 
d="M260 308q-7 0 -15.5 -2.5t-16 -8.5t-13 -17t-5.5 -27v-149q0 -48 -23 -76t-75 -28h-74v100h18q23 0 32.5 8.5t9.5 35.5v136q0 23 9 37.5t22 23.5t26.5 12.5t22.5 3.5v2q-9 2 -22.5 6t-26.5 13t-22 24t-9 38v130q0 27 -9.5 35.5t-32.5 8.5h-18v100h74q52 0 75 -28t23 -76
v-149q0 -17 5.5 -27t13 -16t16 -8t15.5 -2v-100z" />
    <glyph glyph-name="asciitilde" unicode="~" horiz-adv-x="600" 
d="M530 258q-8 -16 -19 -31.5t-26 -27.5t-34.5 -19.5t-44.5 -7.5q-26 0 -54 9.5t-57 22.5l-55 24t-47 12q-30 0 -50.5 -23t-36.5 -49l-36 90q8 16 19 31.5t26 27.5t34.5 19.5t44.5 7.5q26 0 54 -9.5t57 -22.5l55 -24t47 -12q15 0 27.5 6.5t23 16.5t19.5 23t17 26z" />
    <glyph glyph-name="exclamdown" unicode="&#xa1;" horiz-adv-x="259" 
d="M64 418v130h130v-130h-130zM77 334h104l21 -500h-146z" />
    <glyph glyph-name="cent" unicode="&#xa2;" 
d="M43 387q0 67 40.5 102.5t104.5 40.5v54h62v-54q60 -9 96.5 -44.5t36.5 -98.5v-65h-130v46q0 50 -34 50t-34 -50v-220q0 -50 34 -50t34 50v58h130v-77q0 -63 -36.5 -98.5t-96.5 -44.5v-70h-62v70q-64 5 -104.5 40.5t-40.5 102.5v258z" />
    <glyph glyph-name="sterling" unicode="&#xa3;" 
d="M17 0q-1 27 3 52.5t15 46.5t31 34.5t50 16.5q5 11 10.5 31.5t5.5 39.5q0 13 -5 30t-12 33l-13 29t-8 17h-90v55h66q-19 33 -29 73t-10 82q0 81 50 123.5t147 42.5q91 0 131 -46t40 -137v-37h-130v31q0 30 -16 46t-33 16q-20 0 -31.5 -12.5t-11.5 -41.5q0 -25 14.5 -61.5
t28.5 -78.5h100v-55h-79q7 -16 12 -33.5t5 -37.5q0 -19 -6 -37t-16 -33t-21.5 -26t-21.5 -15l2 -2q12 2 28 -2.5t32.5 -10.5l32 -11.5t25.5 -5.5q6 0 9.5 3.5t5 8.5t2 10.5t1.5 9.5h91q0 -31 -5.5 -59.5t-19.5 -50.5t-38 -35t-60 -13q-21 0 -43 6t-42.5 13.5l-38 13.5
t-29.5 6q-14 0 -24.5 -7t-12.5 -22h-92z" />
    <glyph glyph-name="fraction" unicode="&#x2044;" horiz-adv-x="167" 
d="M334 706l-425 -716h-76l425 716h76z" />
    <glyph glyph-name="fraction" unicode="&#x2215;" horiz-adv-x="167" 
d="M334 706l-425 -716h-76l425 716h76z" />
    <glyph glyph-name="yen" unicode="&#xa5;" 
d="M289 304h116v-56h-122v-248h-142v248h-119v56h115l-23 73h-92v56h75l-83 263h137l62 -243h2l60 243h137l-82 -263h75v-56h-93z" />
    <glyph glyph-name="florin" unicode="&#x192;" 
d="M9 -68h33q24 0 34 11t14 47l39 340h-76l8 56h75l21 192q3 29 15 54t31 43t43 28.5t53 10.5h83l-13 -112h-33q-24 0 -34 -12t-14 -46l-17 -158h74l-8 -56h-73l-44 -376q-3 -29 -15.5 -53.5t-31 -42.5t-43.5 -28t-53 -10h-81z" />
    <glyph glyph-name="section" unicode="&#xa7;" horiz-adv-x="481" 
d="M240 208q36 0 50 16t14 51t-14 51.5t-50 16.5t-50 -16.5t-14 -51.5t14 -51t50 -16zM284 524l-2 31q0 18 -9.5 31t-29.5 13q-39 0 -39 -56q0 -23 17.5 -37.5t44 -27l57.5 -26t57.5 -35.5t44 -56t17.5 -86q0 -39 -5.5 -65t-16 -43t-26.5 -25.5t-38 -12.5v-2q6 -1 16 -7.5
t19.5 -20t16 -36t6.5 -56.5q0 -85 -42 -126t-135 -41q-91 0 -131 40.5t-40 105.5v46h132v-38q0 -18 9.5 -30.5t29.5 -12.5q39 0 39 55q0 23 -17.5 38.5t-44 28.5l-57.5 27.5t-57.5 36t-44 53.5t-17.5 80q0 39 5.5 65.5t17 44.5t28 28t37.5 15v2q-8 2 -17.5 12t-17.5 26
t-13.5 36.5t-5.5 44.5q0 86 43 126t128 40q84 0 124.5 -35t40.5 -113v-38h-124z" />
    <glyph glyph-name="currency" unicode="&#xa4;" 
d="M118 348q0 -21 7 -40t19.5 -33t30 -22.5t38.5 -8.5t38.5 8.5t30 22.5t19.5 33t7 40t-7 40t-19.5 33t-30 22.5t-38.5 8.5t-38.5 -8.5t-30 -22.5t-19.5 -33t-7 -40zM75 536l42 -41q14 14 40.5 22.5t55.5 8.5t55.5 -8.5t40.5 -22.5l42 41l46 -46l-40 -40q15 -16 23 -43.5
t8 -58.5t-8 -58.5t-23 -43.5l40 -40l-46 -46l-42 41q-14 -14 -40.5 -22.5t-55.5 -8.5t-55.5 8.5t-40.5 22.5l-42 -41l-46 46l40 40q-15 16 -23 43.5t-8 58.5t8 58.5t23 43.5l-40 40z" />
    <glyph glyph-name="quotesingle" unicode="'" horiz-adv-x="222" 
d="M55 714h112v-270h-112v270z" />
    <glyph glyph-name="quotedblleft" unicode="&#x201c;" horiz-adv-x="407" 
d="M42 454v130l67 130h73l-60 -130h50v-130h-130zM218 454v130l67 130h73l-60 -130h50v-130h-130z" />
    <glyph glyph-name="guillemotleft" unicode="&#xab;" horiz-adv-x="407" 
d="M283 383h104l-97 -125l97 -125h-104l-97 125zM117 383h104l-97 -125l97 -125h-104l-97 125z" />
    <glyph glyph-name="guilsinglleft" unicode="&#x2039;" horiz-adv-x="241" 
d="M117 383h104l-97 -125l97 -125h-104l-97 125z" />
    <glyph glyph-name="guilsinglright" unicode="&#x203a;" horiz-adv-x="241" 
d="M221 258l-97 -125h-104l97 125l-97 125h104z" />
    <glyph glyph-name="endash" unicode="&#x2013;" horiz-adv-x="500" 
d="M0 314h500v-112h-500v112z" />
    <glyph glyph-name="dagger" unicode="&#x2020;" 
d="M157 696h112v-188h135v-98h-135v-410h-112v410h-135v98h135v188z" />
    <glyph glyph-name="daggerdbl" unicode="&#x2021;" 
d="M155 550v146h112v-146h137v-94h-137v-220h137v-94h-137v-142h-112v142h-133v94h133v220h-133v94h133z" />
    <glyph glyph-name="periodcentered" unicode="&#xb7;" horiz-adv-x="213" 
d="M35 258q0 29 21 50t50 21t50 -21t21 -50t-21 -50t-50 -21t-50 21t-21 50z" />
    <glyph glyph-name="periodcentered" unicode="&#x2219;" horiz-adv-x="213" 
d="M35 258q0 29 21 50t50 21t50 -21t21 -50t-21 -50t-50 -21t-50 21t-21 50z" />
    <glyph glyph-name="paragraph" unicode="&#xb6;" horiz-adv-x="620" 
d="M266 362q-100 0 -156 46t-56 127q0 43 13 76t41 56t72.5 35t107.5 12h273v-894h-112v808h-71v-808h-112v542z" />
    <glyph glyph-name="bullet" unicode="&#x2022;" horiz-adv-x="500" 
d="M71 357q0 37 14 69.5t38.5 57t57 38.5t69.5 14t69.5 -14t57 -38.5t38.5 -57t14 -69.5t-14 -69.5t-38.5 -57t-57 -38.5t-69.5 -14t-69.5 14t-57 38.5t-38.5 57t-14 69.5z" />
    <glyph glyph-name="quotesinglbase" unicode="&#x201a;" horiz-adv-x="241" 
d="M186 130v-130l-67 -130h-73l60 130h-50v130h130z" />
    <glyph glyph-name="quotedblbase" unicode="&#x201e;" horiz-adv-x="407" 
d="M365 130v-130l-67 -130h-73l60 130h-50v130h130zM189 130v-130l-67 -130h-73l60 130h-50v130h130z" />
    <glyph glyph-name="quotedblright" unicode="&#x201d;" horiz-adv-x="407" 
d="M365 714v-130l-67 -130h-73l60 130h-50v130h130zM189 714v-130l-67 -130h-73l60 130h-50v130h130z" />
    <glyph glyph-name="guillemotright" unicode="&#xbb;" horiz-adv-x="407" 
d="M221 258l-97 -125h-104l97 125l-97 125h104zM387 258l-97 -125h-104l97 125l-97 125h104z" />
    <glyph glyph-name="ellipsis" unicode="&#x2026;" horiz-adv-x="1000" 
d="M898 130v-130h-130v130h130zM565 130v-130h-130v130h130zM232 130v-130h-130v130h130z" />
    <glyph glyph-name="perthousand" unicode="&#x2030;" horiz-adv-x="889" 
d="M576 706l-468 -716h-68l468 716h68zM444 92q0 -10 8 -18.5t22 -8.5q15 0 22.5 8.5t7.5 18.5v129q0 9 -7.5 17.5t-22.5 8.5q-14 0 -22 -8.5t-8 -17.5v-129zM590 84q0 -45 -25.5 -69.5t-60.5 -24.5h-60q-35 0 -60.5 24.5t-25.5 69.5v144q0 46 25.5 70t60.5 24h60
q35 0 60.5 -24t25.5 -70v-144zM264 468q0 -46 -25.5 -70t-60.5 -24h-60q-35 0 -60.5 24t-25.5 70v144q0 46 25.5 70t60.5 24h60q35 0 60.5 -24t25.5 -70v-144zM118 476q0 -10 8 -18.5t22 -8.5q15 0 22.5 8.5t7.5 18.5v128q0 10 -7.5 18.5t-22.5 8.5q-14 0 -22 -8.5t-8 -18.5
v-128zM720 92q0 -10 8 -18.5t22 -8.5q15 0 22.5 8.5t7.5 18.5v129q0 9 -7.5 17.5t-22.5 8.5q-14 0 -22 -8.5t-8 -17.5v-129zM866 84q0 -45 -25.5 -69.5t-60.5 -24.5h-60q-35 0 -60.5 24.5t-25.5 69.5v144q0 46 25.5 70t60.5 24h60q35 0 60.5 -24t25.5 -70v-144z" />
    <glyph glyph-name="questiondown" unicode="&#xbf;" horiz-adv-x="407" 
d="M152 418v130h130v-130h-130zM282 332v-100q0 -38 -17 -63.5t-38 -49.5t-37.5 -50.5t-16.5 -64.5q0 -41 10 -56.5t26 -15.5t26 15.5t10 56.5v45h130v-60q0 -47 -10.5 -79.5t-32 -52.5t-54 -28.5t-75.5 -8.5q-85 0 -128.5 43t-43.5 131q0 35 5 61t13.5 45.5t19.5 33.5
t22 26l22 23t19.5 24.5t14 29.5t5.5 39v56h130z" />
    <glyph glyph-name="grave" unicode="`" horiz-adv-x="222" 
d="M94 580l-105 142h118l61 -142h-74z" />
    <glyph glyph-name="acute" unicode="&#xb4;" horiz-adv-x="222" 
d="M54 580l61 142h118l-105 -142h-74z" />
    <glyph glyph-name="circumflex" unicode="&#x2c6;" horiz-adv-x="222" 
d="M-33 580l89 142h110l89 -142h-94l-51 86l-53 -86h-90z" />
    <glyph glyph-name="tilde" unicode="&#x2dc;" horiz-adv-x="222" 
d="M-38 592q1 19 7 39.5t17 37.5t27.5 28t38.5 11q19 0 36.5 -5.5t32.5 -11.5l28 -11.5t24 -5.5q14 0 20.5 12t6.5 28h62q-1 -21 -6.5 -42t-16.5 -37.5t-27.5 -26.5t-38.5 -10q-16 0 -33 5.5t-32.5 11.5t-27.5 11.5t-19 5.5q-21 0 -29 -14t-8 -26h-62z" />
    <glyph glyph-name="macron" unicode="&#xaf;" horiz-adv-x="222" 
d="M-28 682h278v-64h-278v64z" />
    <glyph glyph-name="macron" unicode="&#x2c9;" horiz-adv-x="222" 
d="M-28 682h278v-64h-278v64z" />
    <glyph glyph-name="breve" unicode="&#x2d8;" horiz-adv-x="222" 
d="M36 714q8 -35 26 -50.5t48 -15.5t48 15.5t26 50.5h58q-4 -58 -38 -95t-94 -37t-94 37t-38 95h58z" />
    <glyph glyph-name="dotaccent" unicode="&#x2d9;" horiz-adv-x="222" 
d="M64 706h94v-108h-94v108z" />
    <glyph glyph-name="dieresis" unicode="&#xa8;" horiz-adv-x="222" 
d="M147 706h94v-108h-94v108zM-19 706h94v-108h-94v108z" />
    <glyph glyph-name="ring" unicode="&#x2da;" horiz-adv-x="222" 
d="M78 645q0 -14 9.5 -23.5t23.5 -9.5t23.5 9.5t9.5 23.5t-9.5 23.5t-23.5 9.5t-23.5 -9.5t-9.5 -23.5zM28 645q0 18 6.5 33t18 26t26.5 17.5t32 6.5t32 -6.5t26.5 -17.5t18 -26t6.5 -33t-6.5 -33t-18 -26t-26.5 -17.5t-32 -6.5t-32 6.5t-26.5 17.5t-18 26t-6.5 33z" />
    <glyph glyph-name="cedilla" unicode="&#xb8;" horiz-adv-x="222" 
d="M146 0l-41 -59q18 3 36 3q34 0 57 -20.5t23 -58.5q0 -40 -33 -62.5t-86 -22.5q-56 0 -96 19l16 39q15 -6 32.5 -10t34.5 -4t34.5 9t17.5 29q0 22 -13 30t-32 8q-12 0 -20.5 -1.5t-16.5 -3.5l-18 17l55 88h50z" />
    <glyph glyph-name="hungarumlaut" unicode="&#x2dd;" horiz-adv-x="222" 
d="M177 722h118l-105 -142h-74zM18 722h118l-89 -142h-74z" />
    <glyph glyph-name="ogonek" unicode="&#x2db;" horiz-adv-x="222" 
d="M287 -161q-37 -23 -78 -41t-82 -18q-48 0 -73 23t-25 63q0 44 22.5 71.5t56 44t72.5 25l73 15.5v-18q-15 -5 -39.5 -15t-48 -25t-40 -34t-16.5 -43q0 -23 12.5 -34t42.5 -11q22 0 51 14.5t50 28.5z" />
    <glyph glyph-name="caron" unicode="&#x2c7;" horiz-adv-x="222" 
d="M57 722l53 -86l51 86h94l-89 -142h-110l-89 142h90z" />
    <glyph glyph-name="emdash" unicode="&#x2014;" horiz-adv-x="1000" 
d="M0 202v112h1000v-112h-1000z" />
    <glyph glyph-name="AE" unicode="&#xc6;" horiz-adv-x="630" 
d="M2 0l199 714h395v-130h-154v-146h147v-130h-147v-178h154v-130h-297v125h-114l-31 -125h-152zM296 255v353h-2l-81 -353h83z" />
    <glyph glyph-name="ordfeminine" unicode="&#xaa;" horiz-adv-x="244" 
d="M141 536q-11 -7 -19 -11.5t-14 -10t-9 -13.5t-3 -21v-7q0 -26 27 -26q5 0 11.5 4.5t6.5 15.5v69zM16 599v29q0 37 28 57.5t80 20.5q53 0 81 -20.5t28 -57.5v-181q0 -21 3.5 -34.5l6.5 -24.5h-89q-6 15 -6 34h-2q-9 -23 -26 -32.5t-39 -9.5q-39 0 -58 20t-19 68v18
q0 32 10.5 50t26 27.5t33.5 13.5t33.5 8.5t26 12t10.5 23.5q0 8 -4.5 16t-15.5 8q-18 0 -23 -10.5t-5 -35.5h-80z" />
    <glyph glyph-name="Oslash" unicode="&#xd8;" horiz-adv-x="444" 
d="M180 207v-52q0 -21 9.5 -30t32.5 -9t32.5 9t9.5 30v235h-2zM389 663q21 -35 21 -103v-406q0 -50 -11.5 -82.5t-34.5 -51.5t-58.5 -26.5t-83.5 -7.5q-43 0 -75.5 6t-55.5 20l-26 -56l-41 18l33 73q-23 36 -23 107v406q0 50 11.5 82.5t34.5 51.5t58.5 26.5t83.5 7.5
q45 0 78 -6t56 -23l23 50l41 -18zM264 498v61q0 21 -9.5 30t-32.5 9t-32.5 -9t-9.5 -30v-244h2z" />
    <glyph glyph-name="OE" unicode="&#x152;" horiz-adv-x="593" 
d="M412 130h157v-130h-247q-5 0 -11.5 -2t-17 -4.5t-27.5 -5t-44 -2.5q-48 0 -83.5 7.5t-58.5 26.5t-34.5 51.5t-11.5 82.5v406q0 50 11.5 82.5t34.5 51.5t58.5 26.5t83.5 7.5q27 0 44 -2.5t27.5 -5t17 -4.5t11.5 -2h247v-130h-157v-146h150v-130h-150v-178zM180 155
q0 -21 9.5 -30t32.5 -9t33.5 9t10.5 30v404q0 21 -10.5 30t-33.5 9t-32.5 -9t-9.5 -30v-404z" />
    <glyph glyph-name="ordmasculine" unicode="&#xba;" horiz-adv-x="244" 
d="M8 613q0 50 32 71.5t82 21.5q49 0 81 -21.5t32 -71.5v-140q0 -50 -32 -71.5t-81 -21.5q-50 0 -82 21.5t-32 71.5v140zM100 473q0 -14 4.5 -20.5t17.5 -6.5q12 0 16.5 6.5t4.5 20.5v140q0 14 -4.5 20.5t-16.5 6.5q-13 0 -17.5 -6.5t-4.5 -20.5v-140z" />
    <glyph glyph-name="ae" unicode="&#xe6;" horiz-adv-x="611" 
d="M234 245q-16 -11 -29 -18.5t-22 -15t-14 -17.5t-5 -25v-26q0 -27 11 -37t28 -10q12 0 21.5 11t9.5 24v114zM376 224v-80q0 -26 10.5 -36t27.5 -10q38 0 38 46v28h130v-46q0 -76 -43.5 -108t-119.5 -32q-24 0 -48 2t-45 9.5t-39.5 23.5t-31.5 45h-2q-3 -13 -12.5 -27
t-24.5 -26t-36 -19.5t-48 -7.5q-53 0 -81.5 33t-28.5 115v30q0 53 16 82.5t40 45.5t52.5 23t52.5 14.5t40 19.5t16 39q0 14 -8 27t-25 13q-27 0 -34.5 -17t-7.5 -59h-124v48q0 62 37.5 96t114.5 34q38 0 65 -9.5t48 -28.5q24 23 51.5 30.5t60.5 7.5q82 0 123.5 -38
t41.5 -106v-162h-206zM452 322v51q0 26 -9.5 35.5t-28.5 9.5q-38 0 -38 -45v-51h76z" />
    <glyph glyph-name="dotlessi" unicode="&#x131;" horiz-adv-x="222" 
d="M182 516v-516h-142v516h142z" />
    <glyph glyph-name="oslash" unicode="&#xf8;" horiz-adv-x="407" 
d="M376 537l-31 -58q34 -37 34 -104v-234q0 -42 -13 -71t-36.5 -48t-55.5 -27.5t-70 -8.5q-65 0 -108 25l-30 -55l-36 22l32 60q-33 38 -33 103v234q0 42 13 71t36.5 48t55.5 27.5t70 8.5q32 0 59 -5.5t49 -18.5l28 53zM171 153v-11q0 -23 7 -33.5t26 -10.5t26 10.5t7 33.5
v135h-2zM237 366v8q0 23 -7 33.5t-26 10.5t-26 -10.5t-7 -33.5v-132h2z" />
    <glyph glyph-name="oe" unicode="&#x153;" horiz-adv-x="630" 
d="M468 322v47q0 49 -38 49t-38 -49v-47h76zM392 224v-80q0 -19 8 -32.5t30 -13.5t30 13.5t8 32.5v28h130v-46q0 -41 -13 -68t-35.5 -43t-52.5 -22.5t-63 -6.5q-37 0 -62 5.5t-48 26.5q-20 -18 -46.5 -25t-67.5 -7q-36 0 -67.5 8.5t-54.5 27.5t-36 48t-13 71v234
q0 33 9.5 61.5t29.5 49.5t52 32.5t77 11.5q37 0 62.5 -4t52.5 -26q24 19 46.5 24.5t63.5 5.5q81 0 123.5 -37t42.5 -109v-160h-206zM181 142q0 -23 7 -33.5t26 -10.5q36 0 36 44v232q0 44 -36 44q-19 0 -26 -10.5t-7 -33.5v-232z" />
    <glyph glyph-name="germandbls" unicode="&#xdf;" 
d="M36 0v568q0 31 10.5 60t32.5 51.5t56 35.5t81 13q39 0 72 -7.5t57 -24t37.5 -43.5t13.5 -65q0 -54 -22.5 -85.5t-77.5 -38.5v-2q47 0 76.5 -27t29.5 -83v-221q0 -61 -25.5 -96t-71.5 -35h-83v126h17q10 0 15.5 7.5t5.5 26.5v204q0 34 -21 34h-17v122q26 0 35 11t9 35
q0 25 -12 35.5t-32 10.5t-32 -15.5t-12 -44.5v-552h-142z" />
    <glyph glyph-name="divide" unicode="&#xf7;" horiz-adv-x="600" 
d="M211 51q0 18 7 34.5t19 28.5t28 19t34 7q38 0 64 -26t26 -63q0 -38 -26 -63.5t-64 -25.5q-36 0 -62 25.5t-26 63.5zM211 465q0 18 7 34.5t19 28.5t28 19t34 7q38 0 64 -26t26 -63q0 -38 -26 -63.5t-64 -25.5q-36 0 -62 25.5t-26 63.5zM42 202v112h516v-112h-516z" />
    <glyph glyph-name="registered" unicode="&#xae;" horiz-adv-x="800" 
d="M337 394h77q38 0 51 13t13 40q0 23 -18.5 34t-60.5 11h-62v-98zM337 154h-88v406h153q80 0 123 -26t43 -96q0 -57 -30 -81t-82 -27l106 -176h-89l-95 172h-41v-172zM129 357q0 -63 21 -115.5t58 -90t86.5 -58.5t105.5 -21q55 0 104.5 21t86.5 58.5t58.5 90t21.5 115.5
t-21.5 115.5t-58.5 90t-86.5 58.5t-104.5 21q-56 0 -105.5 -21t-86.5 -58.5t-58 -90t-21 -115.5zM17 357q0 87 31.5 156t85 117t122.5 73t144 25t144 -25t122.5 -73t85 -117t31.5 -156t-31.5 -156t-85 -117t-122.5 -73t-144 -25t-144 25t-122.5 73t-85 117t-31.5 156z" />
    <glyph glyph-name="ccedilla" unicode="&#xe7;" horiz-adv-x="389" 
d="M365 206v-77q0 -68 -35.5 -101.5t-101.5 -39.5l-32 -47q18 3 36 3q34 0 57 -20.5t23 -58.5q0 -40 -33 -62.5t-86 -22.5q-56 0 -96 19l16 39q15 -6 32.5 -10t34.5 -4t34.5 9t17.5 29q0 22 -13 30t-32 8q-12 0 -20.5 -1.5t-16.5 -3.5l-18 17l46 75q-76 3 -114.5 39.5
t-38.5 102.5v258q0 69 42.5 106t126.5 37q81 0 126 -34t45 -109v-67h-130v58q0 40 -34 40t-34 -40v-240q0 -40 34 -40t34 40v68h130z" />
    <glyph glyph-name="plusminus" unicode="&#xb1;" horiz-adv-x="600" 
d="M42 112h516v-112h-516v112zM244 516h112v-126h202v-112h-202v-126h-112v126h-202v112h202v126z" />
    <glyph glyph-name="Ccedilla" unicode="&#xc7;" 
d="M256 459v107q0 16 -11.5 24t-26.5 8q-20 0 -29 -10.5t-9 -39.5v-382q0 -29 9 -39.5t29 -10.5q15 0 26.5 8t11.5 24v132h146v-126q0 -82 -36 -122t-120 -44l-32 -47q18 3 36 3q34 0 57 -20.5t23 -58.5q0 -40 -33 -62.5t-86 -22.5q-56 0 -96 19l16 39q15 -6 32.5 -10
t34.5 -4t34.5 9t17.5 29q0 22 -13 30t-32 8q-12 0 -20.5 -1.5t-16.5 -3.5l-18 17l47 75q-89 4 -126 43.5t-37 123.5v406q0 89 42 128.5t142 39.5t142 -39.5t42 -128.5v-101h-146z" />
    <glyph glyph-name="copyright" unicode="&#xa9;" horiz-adv-x="800" 
d="M594 301q-6 -38 -22.5 -67.5t-40.5 -49.5t-54 -30t-62 -10q-47 0 -85.5 16.5t-65.5 45.5t-41.5 68.5t-14.5 85.5t14 86t40.5 68.5t64.5 45t86 16.5q67 0 116 -38.5t61 -113.5h-86q-7 35 -33 49.5t-58 14.5q-49 0 -75 -34t-26 -92q0 -56 28 -93t75 -37q37 0 61 16.5
t28 52.5h90zM129 357q0 -63 21 -115.5t58 -90t86.5 -58.5t105.5 -21q55 0 104.5 21t86.5 58.5t58.5 90t21.5 115.5t-21.5 115.5t-58.5 90t-86.5 58.5t-104.5 21q-56 0 -105.5 -21t-86.5 -58.5t-58 -90t-21 -115.5zM17 357q0 87 31.5 156t85 117t122.5 73t144 25t144 -25
t122.5 -73t85 -117t31.5 -156t-31.5 -156t-85 -117t-122.5 -73t-144 -25t-144 25t-122.5 73t-85 117t-31.5 156z" />
    <glyph glyph-name="logicalnot" unicode="&#xac;" horiz-adv-x="600" 
d="M446 312h-404v112h516v-332h-112v220z" />
    <glyph glyph-name="trademark" unicode="&#x2122;" horiz-adv-x="1000" 
d="M385 628h-115v-326h-112v326h-114v86h341v-86zM710 464l93 250h153v-412h-106v282h-2l-98 -282h-81l-98 282h-2v-282h-106v412h153z" />
    <glyph glyph-name="degree" unicode="&#xb0;" horiz-adv-x="400" 
d="M129 563q0 -34 19.5 -54.5t51.5 -20.5t51.5 20.5t19.5 54.5t-19.5 54.5t-51.5 20.5t-51.5 -20.5t-19.5 -54.5zM57 563q0 30 11 56t30.5 45.5t45.5 30.5t56 11t56 -11t45.5 -30.5t30.5 -45.5t11 -56t-11 -56t-30.5 -45.5t-45.5 -30.5t-56 -11t-56 11t-45.5 30.5
t-30.5 45.5t-11 56z" />
    <glyph glyph-name="mu" unicode="&#xb5;" 
d="M389 0h-136v68h-2q-8 -24 -25.5 -46t-46.5 -30v-172h-142v696h142v-374q0 -44 31 -44q14 0 25.5 10.5t11.5 33.5v374h142v-516z" />
    <glyph glyph-name="mu" unicode="&#x3bc;" 
d="M389 0h-136v68h-2q-8 -24 -25.5 -46t-46.5 -30v-172h-142v696h142v-374q0 -44 31 -44q14 0 25.5 10.5t11.5 33.5v374h142v-516z" />
    <glyph glyph-name="numbersign" unicode="#" 
d="M184 408l-14 -120h79l14 120h-79zM389 198h-72l-23 -198h-78l22 198h-78l-23 -198h-78l23 198h-72l3 90h79l14 120h-72l3 90h79l22 198h78l-22 -198h79l23 198h77l-22 -198h65l-3 -90h-72l-14 -120h65z" />
    <glyph glyph-name="Aacute" unicode="&#xc1;" horiz-adv-x="444" 
d="M186 256h70l-31 338h-2zM4 0l121 714h194l121 -714h-151l-17 126h-101l-15 -126h-152zM165 758l61 142h118l-105 -142h-74z" />
    <glyph glyph-name="Acircumflex" unicode="&#xc2;" horiz-adv-x="444" 
d="M186 256h70l-31 338h-2zM4 0l121 714h194l121 -714h-151l-17 126h-101l-15 -126h-152zM78 758l89 142h110l89 -142h-94l-51 86l-53 -86h-90z" />
    <glyph glyph-name="Adieresis" unicode="&#xc4;" horiz-adv-x="444" 
d="M186 256h70l-31 338h-2zM4 0l121 714h194l121 -714h-151l-17 126h-101l-15 -126h-152zM258 884h94v-108h-94v108zM92 884h94v-108h-94v108z" />
    <glyph glyph-name="Agrave" unicode="&#xc0;" horiz-adv-x="444" 
d="M186 256h70l-31 338h-2zM4 0l121 714h194l121 -714h-151l-17 126h-101l-15 -126h-152zM205 758l-105 142h118l61 -142h-74z" />
    <glyph glyph-name="Aring" unicode="&#xc5;" horiz-adv-x="444" 
d="M186 256h70l-31 338h-2zM4 0l121 714h194l121 -714h-151l-17 126h-101l-15 -126h-152zM189 823q0 -14 9.5 -23.5t23.5 -9.5t23.5 9.5t9.5 23.5t-9.5 23.5t-23.5 9.5t-23.5 -9.5t-9.5 -23.5zM139 823q0 18 6.5 33t18 26t26.5 17.5t32 6.5t32 -6.5t26.5 -17.5t18 -26
t6.5 -33t-6.5 -33t-18 -26t-26.5 -17.5t-32 -6.5t-32 6.5t-26.5 17.5t-18 26t-6.5 33z" />
    <glyph glyph-name="Atilde" unicode="&#xc3;" horiz-adv-x="444" 
d="M186 256h70l-31 338h-2zM4 0l121 714h194l121 -714h-151l-17 126h-101l-15 -126h-152zM73 770q1 19 7 39.5t17 37.5t27.5 28t38.5 11q19 0 36.5 -5.5t32.5 -11.5l28 -11.5t24 -5.5q14 0 20.5 12t6.5 28h62q-1 -21 -6.5 -42t-16.5 -37.5t-27.5 -26.5t-38.5 -10
q-16 0 -33 5.5t-32.5 11.5t-27.5 11.5t-19 5.5q-21 0 -29 -14t-8 -26h-62z" />
    <glyph glyph-name="Eacute" unicode="&#xc9;" horiz-adv-x="370" 
d="M44 714h300v-130h-154v-146h147v-130h-147v-178h154v-130h-300v714zM135 758l61 142h118l-105 -142h-74z" />
    <glyph glyph-name="Ecircumflex" unicode="&#xca;" horiz-adv-x="370" 
d="M44 714h300v-130h-154v-146h147v-130h-147v-178h154v-130h-300v714zM48 758l89 142h110l89 -142h-94l-51 86l-53 -86h-90z" />
    <glyph glyph-name="Edieresis" unicode="&#xcb;" horiz-adv-x="370" 
d="M44 714h300v-130h-154v-146h147v-130h-147v-178h154v-130h-300v714zM228 884h94v-108h-94v108zM62 884h94v-108h-94v108z" />
    <glyph glyph-name="Egrave" unicode="&#xc8;" horiz-adv-x="370" 
d="M44 714h300v-130h-154v-146h147v-130h-147v-178h154v-130h-300v714zM175 758l-105 142h118l61 -142h-74z" />
    <glyph glyph-name="Iacute" unicode="&#xcd;" horiz-adv-x="241" 
d="M48 0v714h146v-714h-146zM64 758l61 142h118l-105 -142h-74z" />
    <glyph glyph-name="Icircumflex" unicode="&#xce;" horiz-adv-x="241" 
d="M48 0v714h146v-714h-146zM-23 758l89 142h110l89 -142h-94l-51 86l-53 -86h-90z" />
    <glyph glyph-name="Idieresis" unicode="&#xcf;" horiz-adv-x="241" 
d="M48 0v714h146v-714h-146zM157 884h94v-108h-94v108zM-9 884h94v-108h-94v108z" />
    <glyph glyph-name="Igrave" unicode="&#xcc;" horiz-adv-x="241" 
d="M48 0v714h146v-714h-146zM104 758l-105 142h118l61 -142h-74z" />
    <glyph glyph-name="Ntilde" unicode="&#xd1;" horiz-adv-x="537" 
d="M355 714h138v-714h-183l-126 499h-2v-499h-138v714h185l124 -503h2v503zM120 770q1 19 7 39.5t17 37.5t27.5 28t38.5 11q19 0 36.5 -5.5t32.5 -11.5l28 -11.5t24 -5.5q14 0 20.5 12t6.5 28h62q-1 -21 -6.5 -42t-16.5 -37.5t-27.5 -26.5t-38.5 -10q-16 0 -33 5.5
t-32.5 11.5t-27.5 11.5t-19 5.5q-21 0 -29 -14t-8 -26h-62z" />
    <glyph glyph-name="Oacute" unicode="&#xd3;" horiz-adv-x="444" 
d="M34 560q0 50 11.5 82.5t34.5 51.5t58.5 26.5t83.5 7.5t83.5 -7.5t58.5 -26.5t34.5 -51.5t11.5 -82.5v-406q0 -50 -11.5 -82.5t-34.5 -51.5t-58.5 -26.5t-83.5 -7.5t-83.5 7.5t-58.5 26.5t-34.5 51.5t-11.5 82.5v406zM180 155q0 -21 9.5 -30t32.5 -9t32.5 9t9.5 30v404
q0 21 -9.5 30t-32.5 9t-32.5 -9t-9.5 -30v-404zM165 758l61 142h118l-105 -142h-74z" />
    <glyph glyph-name="Ocircumflex" unicode="&#xd4;" horiz-adv-x="444" 
d="M34 560q0 50 11.5 82.5t34.5 51.5t58.5 26.5t83.5 7.5t83.5 -7.5t58.5 -26.5t34.5 -51.5t11.5 -82.5v-406q0 -50 -11.5 -82.5t-34.5 -51.5t-58.5 -26.5t-83.5 -7.5t-83.5 7.5t-58.5 26.5t-34.5 51.5t-11.5 82.5v406zM180 155q0 -21 9.5 -30t32.5 -9t32.5 9t9.5 30v404
q0 21 -9.5 30t-32.5 9t-32.5 -9t-9.5 -30v-404zM78 758l89 142h110l89 -142h-94l-51 86l-53 -86h-90z" />
    <glyph glyph-name="Odieresis" unicode="&#xd6;" horiz-adv-x="444" 
d="M34 560q0 50 11.5 82.5t34.5 51.5t58.5 26.5t83.5 7.5t83.5 -7.5t58.5 -26.5t34.5 -51.5t11.5 -82.5v-406q0 -50 -11.5 -82.5t-34.5 -51.5t-58.5 -26.5t-83.5 -7.5t-83.5 7.5t-58.5 26.5t-34.5 51.5t-11.5 82.5v406zM180 155q0 -21 9.5 -30t32.5 -9t32.5 9t9.5 30v404
q0 21 -9.5 30t-32.5 9t-32.5 -9t-9.5 -30v-404zM258 884h94v-108h-94v108zM92 884h94v-108h-94v108z" />
    <glyph glyph-name="Ograve" unicode="&#xd2;" horiz-adv-x="444" 
d="M34 560q0 50 11.5 82.5t34.5 51.5t58.5 26.5t83.5 7.5t83.5 -7.5t58.5 -26.5t34.5 -51.5t11.5 -82.5v-406q0 -50 -11.5 -82.5t-34.5 -51.5t-58.5 -26.5t-83.5 -7.5t-83.5 7.5t-58.5 26.5t-34.5 51.5t-11.5 82.5v406zM180 155q0 -21 9.5 -30t32.5 -9t32.5 9t9.5 30v404
q0 21 -9.5 30t-32.5 9t-32.5 -9t-9.5 -30v-404zM205 758l-105 142h118l61 -142h-74z" />
    <glyph glyph-name="Otilde" unicode="&#xd5;" horiz-adv-x="444" 
d="M34 560q0 50 11.5 82.5t34.5 51.5t58.5 26.5t83.5 7.5t83.5 -7.5t58.5 -26.5t34.5 -51.5t11.5 -82.5v-406q0 -50 -11.5 -82.5t-34.5 -51.5t-58.5 -26.5t-83.5 -7.5t-83.5 7.5t-58.5 26.5t-34.5 51.5t-11.5 82.5v406zM180 155q0 -21 9.5 -30t32.5 -9t32.5 9t9.5 30v404
q0 21 -9.5 30t-32.5 9t-32.5 -9t-9.5 -30v-404zM73 770q1 19 7 39.5t17 37.5t27.5 28t38.5 11q19 0 36.5 -5.5t32.5 -11.5l28 -11.5t24 -5.5q14 0 20.5 12t6.5 28h62q-1 -21 -6.5 -42t-16.5 -37.5t-27.5 -26.5t-38.5 -10q-16 0 -33 5.5t-32.5 11.5t-27.5 11.5t-19 5.5
q-21 0 -29 -14t-8 -26h-62z" />
    <glyph glyph-name="Uacute" unicode="&#xda;" horiz-adv-x="444" 
d="M410 154q0 -50 -11.5 -82.5t-34.5 -51.5t-58.5 -26.5t-83.5 -7.5t-83.5 7.5t-58.5 26.5t-34.5 51.5t-11.5 82.5v560h146v-538q0 -38 9.5 -49t32.5 -11t32.5 11t9.5 49v538h146v-560zM165 758l61 142h118l-105 -142h-74z" />
    <glyph glyph-name="Ucircumflex" unicode="&#xdb;" horiz-adv-x="444" 
d="M410 154q0 -50 -11.5 -82.5t-34.5 -51.5t-58.5 -26.5t-83.5 -7.5t-83.5 7.5t-58.5 26.5t-34.5 51.5t-11.5 82.5v560h146v-538q0 -38 9.5 -49t32.5 -11t32.5 11t9.5 49v538h146v-560zM78 758l89 142h110l89 -142h-94l-51 86l-53 -86h-90z" />
    <glyph glyph-name="Udieresis" unicode="&#xdc;" horiz-adv-x="444" 
d="M410 154q0 -50 -11.5 -82.5t-34.5 -51.5t-58.5 -26.5t-83.5 -7.5t-83.5 7.5t-58.5 26.5t-34.5 51.5t-11.5 82.5v560h146v-538q0 -38 9.5 -49t32.5 -11t32.5 11t9.5 49v538h146v-560zM258 884h94v-108h-94v108zM92 884h94v-108h-94v108z" />
    <glyph glyph-name="Ugrave" unicode="&#xd9;" horiz-adv-x="444" 
d="M410 154q0 -50 -11.5 -82.5t-34.5 -51.5t-58.5 -26.5t-83.5 -7.5t-83.5 7.5t-58.5 26.5t-34.5 51.5t-11.5 82.5v560h146v-538q0 -38 9.5 -49t32.5 -11t32.5 11t9.5 49v538h146v-560zM205 758l-105 142h118l61 -142h-74z" />
    <glyph glyph-name="Ydieresis" unicode="&#x178;" horiz-adv-x="463" 
d="M231 457h2l73 257h153l-155 -442v-272h-146v272l-154 442h153zM268 884h94v-108h-94v108zM102 884h94v-108h-94v108z" />
    <glyph glyph-name="aacute" unicode="&#xe1;" horiz-adv-x="407" 
d="M230 247l-28.5 -19t-21.5 -17t-13.5 -22t-4.5 -35v-13q0 -23 10.5 -33t30.5 -10q8 0 17.5 8t9.5 25v116zM38 351v49q0 62 43 96t124 34t124 -34t43 -96v-302q0 -35 5.5 -57l10.5 -41h-137q-5 13 -7 27.5t-2 28.5h-2q-15 -38 -41.5 -54t-60.5 -16q-60 0 -89 33.5
t-29 114.5v30q0 53 16 82.5t40 45.5t52 23t52 14.5t40 19.5t16 39q0 14 -7.5 27t-24.5 13q-27 0 -34.5 -17.5t-7.5 -59.5h-124zM147 580l61 142h118l-105 -142h-74z" />
    <glyph glyph-name="acircumflex" unicode="&#xe2;" horiz-adv-x="407" 
d="M230 247l-28.5 -19t-21.5 -17t-13.5 -22t-4.5 -35v-13q0 -23 10.5 -33t30.5 -10q8 0 17.5 8t9.5 25v116zM38 351v49q0 62 43 96t124 34t124 -34t43 -96v-302q0 -35 5.5 -57l10.5 -41h-137q-5 13 -7 27.5t-2 28.5h-2q-15 -38 -41.5 -54t-60.5 -16q-60 0 -89 33.5
t-29 114.5v30q0 53 16 82.5t40 45.5t52 23t52 14.5t40 19.5t16 39q0 14 -7.5 27t-24.5 13q-27 0 -34.5 -17.5t-7.5 -59.5h-124zM60 580l89 142h110l89 -142h-94l-51 86l-53 -86h-90z" />
    <glyph glyph-name="adieresis" unicode="&#xe4;" horiz-adv-x="407" 
d="M230 247l-28.5 -19t-21.5 -17t-13.5 -22t-4.5 -35v-13q0 -23 10.5 -33t30.5 -10q8 0 17.5 8t9.5 25v116zM38 351v49q0 62 43 96t124 34t124 -34t43 -96v-302q0 -35 5.5 -57l10.5 -41h-137q-5 13 -7 27.5t-2 28.5h-2q-15 -38 -41.5 -54t-60.5 -16q-60 0 -89 33.5
t-29 114.5v30q0 53 16 82.5t40 45.5t52 23t52 14.5t40 19.5t16 39q0 14 -7.5 27t-24.5 13q-27 0 -34.5 -17.5t-7.5 -59.5h-124zM240 706h94v-108h-94v108zM74 706h94v-108h-94v108z" />
    <glyph glyph-name="agrave" unicode="&#xe0;" horiz-adv-x="407" 
d="M230 247l-28.5 -19t-21.5 -17t-13.5 -22t-4.5 -35v-13q0 -23 10.5 -33t30.5 -10q8 0 17.5 8t9.5 25v116zM38 351v49q0 62 43 96t124 34t124 -34t43 -96v-302q0 -35 5.5 -57l10.5 -41h-137q-5 13 -7 27.5t-2 28.5h-2q-15 -38 -41.5 -54t-60.5 -16q-60 0 -89 33.5
t-29 114.5v30q0 53 16 82.5t40 45.5t52 23t52 14.5t40 19.5t16 39q0 14 -7.5 27t-24.5 13q-27 0 -34.5 -17.5t-7.5 -59.5h-124zM187 580l-105 142h118l61 -142h-74z" />
    <glyph glyph-name="aring" unicode="&#xe5;" horiz-adv-x="407" 
d="M230 247l-28.5 -19t-21.5 -17t-13.5 -22t-4.5 -35v-13q0 -23 10.5 -33t30.5 -10q8 0 17.5 8t9.5 25v116zM38 351v49q0 62 43 96t124 34t124 -34t43 -96v-302q0 -35 5.5 -57l10.5 -41h-137q-5 13 -7 27.5t-2 28.5h-2q-15 -38 -41.5 -54t-60.5 -16q-60 0 -89 33.5
t-29 114.5v30q0 53 16 82.5t40 45.5t52 23t52 14.5t40 19.5t16 39q0 14 -7.5 27t-24.5 13q-27 0 -34.5 -17.5t-7.5 -59.5h-124zM171 645q0 -14 9.5 -23.5t23.5 -9.5t23.5 9.5t9.5 23.5t-9.5 23.5t-23.5 9.5t-23.5 -9.5t-9.5 -23.5zM121 645q0 18 6.5 33t18 26t26.5 17.5
t32 6.5t32 -6.5t26.5 -17.5t18 -26t6.5 -33t-6.5 -33t-18 -26t-26.5 -17.5t-32 -6.5t-32 6.5t-26.5 17.5t-18 26t-6.5 33z" />
    <glyph glyph-name="atilde" unicode="&#xe3;" horiz-adv-x="407" 
d="M230 247l-28.5 -19t-21.5 -17t-13.5 -22t-4.5 -35v-13q0 -23 10.5 -33t30.5 -10q8 0 17.5 8t9.5 25v116zM38 351v49q0 62 43 96t124 34t124 -34t43 -96v-302q0 -35 5.5 -57l10.5 -41h-137q-5 13 -7 27.5t-2 28.5h-2q-15 -38 -41.5 -54t-60.5 -16q-60 0 -89 33.5
t-29 114.5v30q0 53 16 82.5t40 45.5t52 23t52 14.5t40 19.5t16 39q0 14 -7.5 27t-24.5 13q-27 0 -34.5 -17.5t-7.5 -59.5h-124zM55 592q1 19 7 39.5t17 37.5t27.5 28t38.5 11q19 0 36.5 -5.5t32.5 -11.5l28 -11.5t24 -5.5q14 0 20.5 12t6.5 28h62q-1 -21 -6.5 -42
t-16.5 -37.5t-27.5 -26.5t-38.5 -10q-16 0 -33 5.5t-32.5 11.5t-27.5 11.5t-19 5.5q-21 0 -29 -14t-8 -26h-62z" />
    <glyph glyph-name="eacute" unicode="&#xe9;" horiz-adv-x="407" 
d="M248 322v47q0 25 -10.5 37t-27.5 12t-27.5 -12t-10.5 -37v-47h76zM172 224v-80q0 -26 10.5 -36t27.5 -10t27.5 10t10.5 36v28h130v-46q0 -69 -41.5 -104.5t-132.5 -35.5t-132.5 35.5t-41.5 104.5v231q0 44 9 76.5t29.5 54t53.5 32t82 10.5t82 -10.5t53.5 -32t29.5 -54
t9 -76.5v-133h-206zM154 580l61 142h118l-105 -142h-74z" />
    <glyph glyph-name="ecircumflex" unicode="&#xea;" horiz-adv-x="407" 
d="M248 322v47q0 25 -10.5 37t-27.5 12t-27.5 -12t-10.5 -37v-47h76zM172 224v-80q0 -26 10.5 -36t27.5 -10t27.5 10t10.5 36v28h130v-46q0 -69 -41.5 -104.5t-132.5 -35.5t-132.5 35.5t-41.5 104.5v231q0 44 9 76.5t29.5 54t53.5 32t82 10.5t82 -10.5t53.5 -32t29.5 -54
t9 -76.5v-133h-206zM67 580l89 142h110l89 -142h-94l-51 86l-53 -86h-90z" />
    <glyph glyph-name="edieresis" unicode="&#xeb;" horiz-adv-x="407" 
d="M248 322v47q0 25 -10.5 37t-27.5 12t-27.5 -12t-10.5 -37v-47h76zM172 224v-80q0 -26 10.5 -36t27.5 -10t27.5 10t10.5 36v28h130v-46q0 -69 -41.5 -104.5t-132.5 -35.5t-132.5 35.5t-41.5 104.5v231q0 44 9 76.5t29.5 54t53.5 32t82 10.5t82 -10.5t53.5 -32t29.5 -54
t9 -76.5v-133h-206zM247 706h94v-108h-94v108zM81 706h94v-108h-94v108z" />
    <glyph glyph-name="egrave" unicode="&#xe8;" horiz-adv-x="407" 
d="M248 322v47q0 25 -10.5 37t-27.5 12t-27.5 -12t-10.5 -37v-47h76zM172 224v-80q0 -26 10.5 -36t27.5 -10t27.5 10t10.5 36v28h130v-46q0 -69 -41.5 -104.5t-132.5 -35.5t-132.5 35.5t-41.5 104.5v231q0 44 9 76.5t29.5 54t53.5 32t82 10.5t82 -10.5t53.5 -32t29.5 -54
t9 -76.5v-133h-206zM194 580l-105 142h118l61 -142h-74z" />
    <glyph glyph-name="iacute" unicode="&#xed;" horiz-adv-x="222" 
d="M182 516v-516h-142v516h142zM54 580l61 142h118l-105 -142h-74z" />
    <glyph glyph-name="icircumflex" unicode="&#xee;" horiz-adv-x="222" 
d="M182 516v-516h-142v516h142zM-33 580l89 142h110l89 -142h-94l-51 86l-53 -86h-90z" />
    <glyph glyph-name="idieresis" unicode="&#xef;" horiz-adv-x="222" 
d="M182 516v-516h-142v516h142zM147 706h94v-108h-94v108zM-19 706h94v-108h-94v108z" />
    <glyph glyph-name="igrave" unicode="&#xec;" horiz-adv-x="222" 
d="M182 516v-516h-142v516h142zM94 580l-105 142h118l61 -142h-74z" />
    <glyph glyph-name="ntilde" unicode="&#xf1;" 
d="M37 516h136v-60h2q12 29 40.5 51.5t66.5 22.5q47 0 77 -29t30 -95v-406h-142v368q0 27 -8 38.5t-24 11.5q-19 0 -27.5 -12.5t-8.5 -47.5v-358h-142v516zM64 592q1 19 7 39.5t17 37.5t27.5 28t38.5 11q19 0 36.5 -5.5t32.5 -11.5l28 -11.5t24 -5.5q14 0 20.5 12t6.5 28h62
q-1 -21 -6.5 -42t-16.5 -37.5t-27.5 -26.5t-38.5 -10q-16 0 -33 5.5t-32.5 11.5t-27.5 11.5t-19 5.5q-21 0 -29 -14t-8 -26h-62z" />
    <glyph glyph-name="oacute" unicode="&#xf3;" horiz-adv-x="407" 
d="M29 375q0 42 13 71t36.5 48t55.5 27.5t70 8.5t70 -8.5t55.5 -27.5t36.5 -48t13 -71v-234q0 -42 -13 -71t-36.5 -48t-55.5 -27.5t-70 -8.5t-70 8.5t-55.5 27.5t-36.5 48t-13 71v234zM171 142q0 -23 7 -33.5t26 -10.5t26 10.5t7 33.5v232q0 23 -7 33.5t-26 10.5t-26 -10.5
t-7 -33.5v-232zM147 580l61 142h118l-105 -142h-74z" />
    <glyph glyph-name="ocircumflex" unicode="&#xf4;" horiz-adv-x="407" 
d="M29 375q0 42 13 71t36.5 48t55.5 27.5t70 8.5t70 -8.5t55.5 -27.5t36.5 -48t13 -71v-234q0 -42 -13 -71t-36.5 -48t-55.5 -27.5t-70 -8.5t-70 8.5t-55.5 27.5t-36.5 48t-13 71v234zM171 142q0 -23 7 -33.5t26 -10.5t26 10.5t7 33.5v232q0 23 -7 33.5t-26 10.5t-26 -10.5
t-7 -33.5v-232zM60 580l89 142h110l89 -142h-94l-51 86l-53 -86h-90z" />
    <glyph glyph-name="odieresis" unicode="&#xf6;" horiz-adv-x="407" 
d="M29 375q0 42 13 71t36.5 48t55.5 27.5t70 8.5t70 -8.5t55.5 -27.5t36.5 -48t13 -71v-234q0 -42 -13 -71t-36.5 -48t-55.5 -27.5t-70 -8.5t-70 8.5t-55.5 27.5t-36.5 48t-13 71v234zM171 142q0 -23 7 -33.5t26 -10.5t26 10.5t7 33.5v232q0 23 -7 33.5t-26 10.5t-26 -10.5
t-7 -33.5v-232zM240 706h94v-108h-94v108zM74 706h94v-108h-94v108z" />
    <glyph glyph-name="ograve" unicode="&#xf2;" horiz-adv-x="407" 
d="M29 375q0 42 13 71t36.5 48t55.5 27.5t70 8.5t70 -8.5t55.5 -27.5t36.5 -48t13 -71v-234q0 -42 -13 -71t-36.5 -48t-55.5 -27.5t-70 -8.5t-70 8.5t-55.5 27.5t-36.5 48t-13 71v234zM171 142q0 -23 7 -33.5t26 -10.5t26 10.5t7 33.5v232q0 23 -7 33.5t-26 10.5t-26 -10.5
t-7 -33.5v-232zM187 580l-105 142h118l61 -142h-74z" />
    <glyph glyph-name="otilde" unicode="&#xf5;" horiz-adv-x="407" 
d="M29 375q0 42 13 71t36.5 48t55.5 27.5t70 8.5t70 -8.5t55.5 -27.5t36.5 -48t13 -71v-234q0 -42 -13 -71t-36.5 -48t-55.5 -27.5t-70 -8.5t-70 8.5t-55.5 27.5t-36.5 48t-13 71v234zM171 142q0 -23 7 -33.5t26 -10.5t26 10.5t7 33.5v232q0 23 -7 33.5t-26 10.5t-26 -10.5
t-7 -33.5v-232zM55 592q1 19 7 39.5t17 37.5t27.5 28t38.5 11q19 0 36.5 -5.5t32.5 -11.5l28 -11.5t24 -5.5q14 0 20.5 12t6.5 28h62q-1 -21 -6.5 -42t-16.5 -37.5t-27.5 -26.5t-38.5 -10q-16 0 -33 5.5t-32.5 11.5t-27.5 11.5t-19 5.5q-21 0 -29 -14t-8 -26h-62z" />
    <glyph glyph-name="uacute" unicode="&#xfa;" 
d="M389 0h-136v60h-2q-12 -29 -40.5 -51.5t-66.5 -22.5q-47 0 -77 29t-30 95v406h142v-368q0 -27 8 -38.5t24 -11.5q19 0 27.5 12.5t8.5 47.5v358h142v-516zM156 580l61 142h118l-105 -142h-74z" />
    <glyph glyph-name="ucircumflex" unicode="&#xfb;" 
d="M389 0h-136v60h-2q-12 -29 -40.5 -51.5t-66.5 -22.5q-47 0 -77 29t-30 95v406h142v-368q0 -27 8 -38.5t24 -11.5q19 0 27.5 12.5t8.5 47.5v358h142v-516zM69 580l89 142h110l89 -142h-94l-51 86l-53 -86h-90z" />
    <glyph glyph-name="udieresis" unicode="&#xfc;" 
d="M389 0h-136v60h-2q-12 -29 -40.5 -51.5t-66.5 -22.5q-47 0 -77 29t-30 95v406h142v-368q0 -27 8 -38.5t24 -11.5q19 0 27.5 12.5t8.5 47.5v358h142v-516zM249 706h94v-108h-94v108zM83 706h94v-108h-94v108z" />
    <glyph glyph-name="ugrave" unicode="&#xf9;" 
d="M389 0h-136v60h-2q-12 -29 -40.5 -51.5t-66.5 -22.5q-47 0 -77 29t-30 95v406h142v-368q0 -27 8 -38.5t24 -11.5q19 0 27.5 12.5t8.5 47.5v358h142v-516zM196 580l-105 142h118l61 -142h-74z" />
    <glyph glyph-name="ydieresis" unicode="&#xff;" horiz-adv-x="407" 
d="M63 -54h53q16 0 23.5 6.5t7.5 15.5q0 5 -2 11t-4 13l-139 524h149l61 -377h2l41 377h150l-134 -593q-12 -53 -37.5 -78t-79.5 -25h-91v126zM240 706h94v-108h-94v108zM74 706h94v-108h-94v108z" />
    <glyph glyph-name="exclam" unicode="!" horiz-adv-x="259" 
d="M195 130v-130h-130v130h130zM182 214h-104l-21 500h146z" />
    <glyph glyph-name="quotedbl" unicode="&#x22;" horiz-adv-x="333" 
d="M198 714h112v-270h-112v270zM23 714h112v-270h-112v270z" />
    <glyph glyph-name="Lslash" unicode="&#x141;" horiz-adv-x="352" 
d="M190 130h154v-130h-300v279l-49 -24v136l49 24v299h146v-228l72 36v-136l-72 -36v-220z" />
    <glyph glyph-name="lslash" unicode="&#x142;" horiz-adv-x="222" 
d="M182 714v-231l40 15v-114l-40 -15v-369h-142v314l-40 -16v114l40 16v286h142z" />
    <glyph glyph-name="threequarters" unicode="&#xbe;" horiz-adv-x="639" 
d="M100 408v-19q0 -23 6 -30.5t20 -7.5t19.5 7.5t5.5 30.5v36q0 23 -5.5 31t-19.5 8h-44v77h44q12 0 18.5 5.5t6.5 20.5v38q0 15 -6.5 20.5t-18.5 5.5q-13 0 -19.5 -5.5t-6.5 -20.5v-31h-88v40q0 50 29 71t86 21q58 0 87 -21t29 -71v-36q0 -31 -13 -51t-51 -22v-2
q38 -1 51 -21t13 -52v-63q0 -49 -29 -70t-87 -21q-57 0 -86 21t-29 70v41h88zM577 706l-425 -716h-76l425 716h76zM350 175l103 243h126v-242h33v-76h-33v-100h-88v100h-141v75zM491 176v154h-2l-63 -154h65z" />
    <glyph glyph-name="onequarter" unicode="&#xbc;" horiz-adv-x="639" 
d="M90 622h-65v52l65 26h92v-418h-92v340zM562 706l-425 -716h-76l425 716h76zM350 175l103 243h126v-242h33v-76h-33v-100h-88v100h-141v75zM491 176v154h-2l-63 -154h65z" />
    <glyph glyph-name="onesuperior" unicode="&#xb9;" horiz-adv-x="255" 
d="M90 622h-65v52l65 26h92v-418h-92v340z" />
    <glyph glyph-name="multiply" unicode="&#xd7;" horiz-adv-x="600" 
d="M118 0l-76 76l183 182l-183 182l76 76l182 -182l182 182l76 -76l-183 -182l183 -182l-76 -76l-182 182z" />
    <glyph glyph-name="Thorn" unicode="&#xde;" 
d="M190 273h22q16 0 26.5 3t16.5 13.5t8.5 30.5t2.5 54t-2.5 54t-8.5 30.5t-16.5 13.5t-26.5 3h-22v-202zM190 0h-146v714h146v-109h34q54 0 90 -7.5t57.5 -26.5t31 -50t9.5 -79v-136q0 -48 -9.5 -79t-31 -50t-57.5 -26.5t-90 -7.5h-34v-143z" />
    <glyph glyph-name="brokenbar" unicode="&#xa6;" horiz-adv-x="222" 
d="M167 175v-350h-112v350h112zM167 675v-350h-112v350h112z" />
    <glyph glyph-name="Eth" unicode="&#xd0;" horiz-adv-x="444" 
d="M190 438h41v-130h-41v-178h34q23 0 32.5 13t9.5 49v330q0 36 -9.5 49t-32.5 13h-34v-146zM44 714h180q48 0 83.5 -7.5t58.5 -26.5t34.5 -51.5t11.5 -82.5v-378q0 -50 -11.5 -82.5t-34.5 -51.5t-58.5 -26.5t-83.5 -7.5h-180v308h-27v130h27v276z" />
    <glyph glyph-name="onehalf" unicode="&#xbd;" horiz-adv-x="639" 
d="M394 0v70q0 26 22 59.5t48.5 67t48.5 64.5t22 52t-5.5 28.5t-19.5 7.5q-13 0 -18.5 -6.5t-5.5 -23.5v-27h-92v31q0 25 5.5 43.5t19 31.5t35.5 19.5t56 6.5q33 0 55.5 -5.5t36 -18.5t19.5 -33t6 -50q0 -37 -12.5 -64.5t-32 -53l-43 -54t-45.5 -68.5h135v-77h-235zM90 622
h-65v52l65 26h92v-418h-92v340zM553 706l-425 -716h-76l425 716h76z" />
    <glyph glyph-name="minus" unicode="&#x2212;" horiz-adv-x="600" 
d="M42 202v112h516v-112h-516z" />
    <glyph glyph-name="eth" unicode="&#xf0;" horiz-adv-x="407" 
d="M46 602l78 33q-12 17 -23.5 31.5l-20.5 25.5l100 22q9 -8 19 -18l21 -22l87 36l44 -66l-77 -32q18 -20 36.5 -44t34 -53t25 -64t9.5 -76v-234q0 -42 -13 -71t-36.5 -48t-55.5 -27.5t-70 -8.5t-70 8.5t-55.5 27.5t-36.5 48t-13 71v234q0 41 12.5 70t34.5 47.5t52.5 27.5
t65.5 10q-5 6 -11 18t-14 21l-79 -33zM171 142q0 -23 7 -33.5t26 -10.5t26 10.5t7 33.5v232q0 23 -7 33.5t-26 10.5t-26 -10.5t-7 -33.5v-232z" />
    <glyph glyph-name="thorn" unicode="&#xfe;" 
d="M247 374q0 44 -30 44q-14 0 -26 -10.5t-12 -33.5v-232q0 -23 12 -33.5t26 -10.5q30 0 30 44v232zM173 447h2q10 36 39.5 59.5t71.5 23.5q45 0 74 -30t29 -83v-318q0 -53 -29 -83t-74 -30t-71 20.5t-34 47.5h-2v-234h-142v894h136v-267z" />
    <glyph glyph-name="twosuperior" unicode="&#xb2;" horiz-adv-x="255" 
d="M10 282v70q0 26 22 59.5t48.5 67t48.5 64.5t22 52t-5.5 28.5t-19.5 7.5q-13 0 -18.5 -6.5t-5.5 -23.5v-27h-92v31q0 25 5.5 43.5t19 31.5t35.5 19.5t56 6.5q33 0 55.5 -5.5t36 -18.5t19.5 -33t6 -50q0 -37 -12.5 -64.5t-32 -53l-43 -54t-45.5 -68.5h135v-77h-235z" />
    <glyph glyph-name="threesuperior" unicode="&#xb3;" horiz-adv-x="255" 
d="M100 408v-19q0 -23 6 -30.5t20 -7.5t19.5 7.5t5.5 30.5v36q0 23 -5.5 31t-19.5 8h-44v77h44q12 0 18.5 5.5t6.5 20.5v38q0 15 -6.5 20.5t-18.5 5.5q-13 0 -19.5 -5.5t-6.5 -20.5v-31h-88v40q0 50 29 71t86 21q58 0 87 -21t29 -71v-36q0 -31 -13 -51t-51 -22v-2
q38 -1 51 -21t13 -52v-63q0 -49 -29 -70t-87 -21q-57 0 -86 21t-29 70v41h88z" />
    <glyph glyph-name="Scaron" unicode="&#x160;" horiz-adv-x="407" 
d="M246 499v40q0 59 -42 59q-23 0 -32.5 -13.5t-9.5 -45.5q0 -31 17 -53.5t42.5 -43t55.5 -42t55.5 -51t42.5 -70t17 -98.5q0 -56 -9.5 -93.5t-31.5 -60t-58 -32t-90 -9.5q-50 0 -85.5 8.5t-58 28t-33 52.5t-10.5 83v67h146v-50q0 -59 42 -59q23 0 32.5 13.5t9.5 45.5
q0 37 -17.5 62.5t-43 46.5t-55 42.5t-55 50.5t-42.5 69t-17 100q0 48 9.5 82.5t32 56.5t58 32.5t88.5 10.5q93 0 138.5 -39t45.5 -134v-56h-142zM150 900l53 -86l51 86h94l-89 -142h-110l-89 142h90z" />
    <glyph glyph-name="Yacute" unicode="&#xdd;" horiz-adv-x="463" 
d="M231 457h2l73 257h153l-155 -442v-272h-146v272l-154 442h153zM175 758l61 142h118l-105 -142h-74z" />
    <glyph glyph-name="Zcaron" unicode="&#x17d;" horiz-adv-x="389" 
d="M22 0v130l175 454h-170v130h335v-130l-182 -454h199v-130h-357zM141 900l53 -86l51 86h94l-89 -142h-110l-89 142h90z" />
    <glyph glyph-name="scaron" unicode="&#x161;" horiz-adv-x="389" 
d="M226 352v32q0 16 -10.5 25t-24.5 9q-33 0 -33 -31q0 -21 15.5 -35t39 -26l50.5 -25t50.5 -31t39 -45t15.5 -67q4 -86 -37.5 -129t-135.5 -43q-91 0 -132 40.5t-41 111.5v40h136v-22q0 -34 10 -46t27 -12q31 0 31 41q0 26 -15 41t-38 26.5l-49 23.5t-49 31t-38 49.5
t-15 79.5q0 63 42 101.5t131 38.5q79 0 120 -32t41 -98v-48h-130zM141 722l53 -86l51 86h94l-89 -142h-110l-89 142h90z" />
    <glyph glyph-name="yacute" unicode="&#xfd;" horiz-adv-x="407" 
d="M63 -54h53q16 0 23.5 6.5t7.5 15.5q0 5 -2 11t-4 13l-139 524h149l61 -377h2l41 377h150l-134 -593q-12 -53 -37.5 -78t-79.5 -25h-91v126zM147 580l61 142h118l-105 -142h-74z" />
    <glyph glyph-name="zcaron" unicode="&#x17e;" horiz-adv-x="333" 
d="M12 516h306v-116l-144 -284h148v-116h-310v116l144 284h-144v116zM113 722l53 -86l51 86h94l-89 -142h-110l-89 142h90z" />
  </font>
</defs>
</svg>
